<?xml version="1.0" encoding="UTF-8"?>
<svg xmlns="http://www.w3.org/2000/svg" width="1000" height="1500" viewBox="0 0 1000 1500">
<defs>
 <linearGradient id="bg" x1="0" y1="0" x2="1" y2="1"><stop offset="0" stop-color="#fbf5ec"/><stop offset="1" stop-color="#c65a43"/></linearGradient>
 <linearGradient id="cup" x1="0" y1="0" x2="1" y2="1"><stop stop-color="#fffdf9"/><stop offset="1" stop-color="#d8c8b6"/></linearGradient>
 <radialGradient id="crema"><stop stop-color="#e8c99e"/><stop offset=".7" stop-color="#bd7d4d"/><stop offset="1" stop-color="#6b3524"/></radialGradient>
 <linearGradient id="machine" x1="0" y1="0" x2="1" y2="1"><stop stop-color="#50463f"/><stop offset=".5" stop-color="#26221f"/><stop offset="1" stop-color="#74685f"/></linearGradient>
 <linearGradient id="carafe" x1="0" y1="0" x2="1" y2="1"><stop stop-color="#fffdf9" stop-opacity=".9"/><stop offset="1" stop-color="#d5c9bb" stop-opacity=".8"/></linearGradient>
 <filter id="shadow" x="-30%" y="-30%" width="160%" height="160%"><feDropShadow dx="0" dy="18" stdDeviation="18" flood-color="#251912" flood-opacity=".25"/></filter>
</defs>
<rect width="1000" height="1500" fill="url(#bg)"/>
<rect x="48" y="48" width="904" height="1404" rx="48" fill="#fffaf3" fill-opacity=".92"/>
<rect x="78" y="78" width="844" height="470" rx="36" fill="#c65a43"/>
<text x="110" y="125" class="brand">GOTT JÄVLA KAFFE</text>
<text x="110" y="182" class="eyebrow">KÖPGUIDE</text>
<text x="110" y="285" class="title">KAFFEMASKIN</text>
<text x="110" y="385" class="title">UNDER 3 000 KR</text>
<text x="110" y="455" class="sub">Vad får du för pengarna?</text>
<text x="110" y="500" class="detail">Tre saker att prioritera innan du köper.</text>
<g><ellipse cx="500" cy="1110" rx="250" ry="55" fill="#2c1b15" opacity=".15"/><circle cx="500" cy="1010" r="220" fill="url(#cup)" filter="url(#shadow)"/><circle cx="500" cy="1010" r="165" fill="#4a2418"/><ellipse cx="500" cy="990" rx="130" ry="78" fill="url(#crema)"/><path d="M455 990c35-55 75 20 25 65-38 34-55-17-5-35 42-15 65 45 5 62" fill="none" stroke="#f5dfbf" stroke-width="13" stroke-linecap="round"/><path d="M720 1010c70-20 85 75 10 90-35 7-57-12-65-30" fill="none" stroke="#6b3524" stroke-width="32" stroke-linecap="round"/><circle cx="250" cy="1190" r="28" fill="#4b2a1d"/><circle cx="750" cy="1200" r="24" fill="#4b2a1d"/></g>
<path d="M110 1320h780" stroke="#d8cbbd" stroke-width="2"/>
<text x="110" y="1370" class="footer">Läs guiden → gottjavlakaffe.se/kaffemaskin-under-3000.html</text>
<text x="110" y="1410" class="tiny">Kaffemaskiner · espresso · kaffe</text>
<style>
.brand{font:800 23px Arial,sans-serif;letter-spacing:3px;fill:#fffdf9}
.eyebrow{font:800 17px Arial,sans-serif;letter-spacing:4px;fill:#fff1e4;opacity:.92}
.title{font:900 67px Arial,sans-serif;letter-spacing:-2px;fill:#fffdf9}
.sub{font:400 31px Georgia,serif;fill:#fffdf9}
.detail{font:500 19px Arial,sans-serif;fill:#fff1e4}
.footer{font:700 17px Arial,sans-serif;fill:#3b2a20}
.tiny{font:500 16px Arial,sans-serif;fill:#746d64}
</style>
</svg>