<?xml version="1.0" encoding="UTF-8"?>
<svg xmlns="http://www.w3.org/2000/svg" width="1000" height="1500" viewBox="0 0 1000 1500">
<defs>
 <linearGradient id="bg" x1="0" y1="0" x2="1" y2="1"><stop offset="0" stop-color="#fbf5ec"/><stop offset="1" stop-color="#6f7f87"/></linearGradient>
 <linearGradient id="cup" x1="0" y1="0" x2="1" y2="1"><stop stop-color="#fffdf9"/><stop offset="1" stop-color="#d8c8b6"/></linearGradient>
 <radialGradient id="crema"><stop stop-color="#e8c99e"/><stop offset=".7" stop-color="#bd7d4d"/><stop offset="1" stop-color="#6b3524"/></radialGradient>
 <linearGradient id="machine" x1="0" y1="0" x2="1" y2="1"><stop stop-color="#50463f"/><stop offset=".5" stop-color="#26221f"/><stop offset="1" stop-color="#74685f"/></linearGradient>
 <linearGradient id="carafe" x1="0" y1="0" x2="1" y2="1"><stop stop-color="#fffdf9" stop-opacity=".9"/><stop offset="1" stop-color="#d5c9bb" stop-opacity=".8"/></linearGradient>
 <filter id="shadow" x="-30%" y="-30%" width="160%" height="160%"><feDropShadow dx="0" dy="18" stdDeviation="18" flood-color="#251912" flood-opacity=".25"/></filter>
</defs>
<rect width="1000" height="1500" fill="url(#bg)"/>
<rect x="48" y="48" width="904" height="1404" rx="48" fill="#fffaf3" fill-opacity=".92"/>
<rect x="78" y="78" width="844" height="470" rx="36" fill="#6f7f87"/>
<text x="110" y="125" class="brand">GOTT JÄVLA KAFFE</text>
<text x="110" y="182" class="eyebrow">KÖPGUIDE</text>
<text x="110" y="285" class="title"></text>

<text x="110" y="385" class="sub">Bra bryggkaffe behöver inte vara tråkigt.</text>
<text x="110" y="430" class="detail">Det här ska du kolla innan du köper.</text>
<g><path d="M355 830h290v320H355z" fill="url(#carafe)" filter="url(#shadow)"/><path d="M355 830h290l-35-80H390z" fill="#f2eadf"/><path d="M390 760h220" stroke="#d7c8b7" stroke-width="10"/><path d="M405 875h190v180H405z" fill="#5c3828"/><ellipse cx="500" cy="1055" rx="95" ry="22" fill="#4a281c"/><path d="M645 860c125-20 135 120 15 145-48 10-82-14-90-45" fill="none" stroke="#e7ddd0" stroke-width="32" stroke-linecap="round"/><path d="M500 690c-10 55 25 75 0 120" fill="none" stroke="#fff5e8" stroke-width="13" stroke-linecap="round" opacity=".8"/></g>
<path d="M110 1320h780" stroke="#d8cbbd" stroke-width="2"/>
<text x="110" y="1370" class="footer">Läs guiden → gottjavlakaffe.se/kaffebryggare.html</text>
<text x="110" y="1410" class="tiny">Kaffemaskiner · espresso · kaffe</text>
<style>
.brand{font:800 23px Arial,sans-serif;letter-spacing:3px;fill:#fffdf9}
.eyebrow{font:800 17px Arial,sans-serif;letter-spacing:4px;fill:#fff1e4;opacity:.92}
.title{font:900 67px Arial,sans-serif;letter-spacing:-2px;fill:#fffdf9}
.sub{font:400 31px Georgia,serif;fill:#fffdf9}
.detail{font:500 19px Arial,sans-serif;fill:#fff1e4}
.footer{font:700 17px Arial,sans-serif;fill:#3b2a20}
.tiny{font:500 16px Arial,sans-serif;fill:#746d64}
</style>
</svg>